<svg width="764" height="273" viewBox="0 0 764 273" fill="none" xmlns="http://www.w3.org/2000/svg">
<path d="M0 218.182H54.5455V272.727H0V218.182ZM0 163.636H54.5455V218.182H0V163.636ZM0 109.091H54.5455V163.636H0V109.091ZM0 54.5455H54.5455V109.091H0V54.5455ZM54.5455 54.5455H109.091V109.091H54.5455V54.5455ZM109.091 109.091H163.636V163.636H109.091V109.091ZM109.091 163.636H163.636V218.182H109.091V163.636ZM109.091 218.182H163.636V272.727H109.091V218.182ZM163.636 54.5455H218.182V109.091H163.636V54.5455ZM218.182 109.091H272.727V163.636H218.182V109.091ZM218.182 163.636H272.727V218.182H218.182V163.636ZM218.182 218.182H272.727V272.727H218.182V218.182Z" fill="#FFFFFF"/>
<path d="M327.539 218.182H382.085V272.727H327.539V218.182ZM327.539 163.636H382.085V218.182H327.539V163.636ZM327.539 109.091H382.085V163.636H327.539V109.091ZM327.539 0H382.085V54.5455H327.539V0Z" fill="#FFFFFF"/>
<path d="M436.523 218.182H491.069V272.727H436.523V218.182ZM436.523 163.636H491.069V218.182H436.523V163.636ZM436.523 109.091H491.069V163.636H436.523V109.091ZM436.523 54.5455H491.069V109.091H436.523V54.5455ZM491.069 54.5455H545.614V109.091H491.069V54.5455ZM545.614 109.091H600.16V163.636H545.614V109.091ZM545.614 163.636H600.16V218.182H545.614V163.636ZM545.614 218.182H600.16V272.727H545.614V218.182Z" fill="#FFFFFF"/>
<path d="M654.492 0H709.038V54.5455H654.492V0ZM654.492 54.5455H709.038V109.091H654.492V54.5455ZM654.492 109.091H709.038V163.636H654.492V109.091ZM654.492 163.636H709.038V218.182H654.492V163.636ZM654.492 218.182H709.038V272.727H654.492V218.182ZM709.038 218.182H763.583V272.727H709.038V218.182ZM709.038 54.5455H763.583V109.091H709.038V54.5455Z" fill="#FFFFFF"/>
</svg>
