<svg width="512" height="512" viewBox="0 0 512 512" fill="none" xmlns="http://www.w3.org/2000/svg">
<rect width="512" height="512" rx="96" fill="#C4F042"/>
<svg x="76" y="106" width="360" height="288" viewBox="0 0 632 505" fill="none" xmlns="http://www.w3.org/2000/svg">
<path d="M0 378.75H126.4V505H0V378.75ZM0 252.5H126.4V378.75H0V252.5ZM0 126.25H126.4V252.5H0V126.25ZM0 0H126.4V126.25H0V0ZM126.4 0H252.8V126.25H126.4V0ZM252.8 126.25H379.2V252.5H252.8V126.25ZM252.8 252.5H379.2V378.75H252.8V252.5ZM252.8 378.75H379.2V505H252.8V378.75ZM379.2 0H505.6V126.25H379.2V0ZM505.6 126.25H632V252.5H505.6V126.25ZM505.6 252.5H632V378.75H505.6V252.5ZM505.6 378.75H632V505H505.6V378.75Z" fill="#111111"/>
</svg>
</svg>
